<svg width="39" height="58" viewBox="0 0 39 58" fill="none" xmlns="http://www.w3.org/2000/svg">
<path d="M22.4937 11.5C24.1196 13.7763 24.9937 16.5038 24.9937 19.3011V22C25.8505 22 26.6828 21.7136 27.3583 21.1862C28.0337 20.6589 28.5134 19.9209 28.7213 19.0896L28.9937 18L29.7327 18.8869C30.9241 20.3166 31.5708 22.122 31.5579 23.9831C31.5449 25.8441 30.8733 27.6405 29.6622 29.0535C29.2083 29.583 28.9709 30.2643 28.9976 30.9612C29.0243 31.6581 29.3131 32.3193 29.8062 32.8125C30.0815 33.0878 30.4118 33.302 30.7755 33.441C31.1392 33.5799 31.5281 33.6407 31.9169 33.6191C32.3056 33.5976 32.6855 33.4943 33.0316 33.3159C33.3777 33.1376 33.6823 32.8883 33.9255 32.5843L35.9937 30L37.9937 35C38.9006 38.0231 38.972 41.2353 38.2005 44.2958C37.4289 47.3562 35.843 50.1506 33.6113 52.3824L33.359 52.6346C29.9237 56.0699 25.2644 57.9999 20.4062 58H18.3655C15.2022 58 12.0927 57.1808 9.33995 55.6223C6.58719 54.0637 4.28495 51.8188 2.6574 49.1063C0.708559 45.8581 -0.185472 42.0858 0.0984029 38.3085C0.382278 34.5312 1.8301 30.9349 4.24253 28.0145L12.338 18.2145C13.1358 17.2488 13.6485 16.0799 13.8185 14.8389C13.9885 13.5979 13.8092 12.3341 13.3005 11.1895C12.6552 9.73753 12.5439 8.10416 12.9864 6.57808C13.4289 5.05201 14.3967 3.73151 15.7187 2.85L19.9937 0V3.69887C19.9936 6.49624 20.8677 9.2237 22.4937 11.5Z" fill="url(#paint0_linear_1_566)"/>
<path d="M27.379 51.1764L27.3879 51.1675C28.9433 49.6002 30.0529 47.6467 30.6027 45.5082C31.1525 43.3696 31.1226 41.1232 30.516 39L27.6069 41.9093C27.3323 42.1838 27.0064 42.4016 26.6477 42.5502C26.2889 42.6988 25.9045 42.7753 25.5162 42.7753C25.1279 42.7753 24.7434 42.6988 24.3847 42.5502C24.026 42.4016 23.7 42.1838 23.4255 41.9093C22.9037 41.3876 22.5958 40.6897 22.5623 39.9526C22.5288 39.2156 22.7721 38.4926 23.2444 37.9258C24.2169 36.7587 24.8282 35.3335 25.0033 33.8245C25.1784 32.3155 24.9099 30.7881 24.2305 29.4294L19.516 20L18.791 27.975C18.704 28.9315 18.4248 29.8605 17.97 30.7064C17.5152 31.5524 16.8943 32.2977 16.1444 32.8978L12.0227 36.1951C10.9287 37.0703 10.0455 38.1804 9.43861 39.4432C8.8317 40.706 8.51659 42.0891 8.5166 43.4901V44.625C8.51661 45.9945 8.81771 47.3473 9.39859 48.5875C9.97947 49.8277 10.8259 50.9251 11.878 51.8019C13.5813 53.2213 15.7339 53.9886 17.951 53.9668L20.8407 53.9381C23.2986 53.9136 25.6478 52.9213 27.379 51.1764Z" fill="#FDD04A"/>
<path d="M3 21C2.73478 21 2.48043 20.8946 2.29289 20.7071C2.10536 20.5196 2 20.2652 2 20V18C2 17.7348 2.10536 17.4804 2.29289 17.2929C2.48043 17.1054 2.73478 17 3 17C3.26522 17 3.51957 17.1054 3.70711 17.2929C3.89464 17.4804 4 17.7348 4 18V20C4 20.2652 3.89464 20.5196 3.70711 20.7071C3.51957 20.8946 3.26522 21 3 21Z" fill="#FE691E"/>
<path d="M6 16C5.73478 16 5.48043 15.8946 5.29289 15.7071C5.10536 15.5196 5 15.2652 5 15V13C5 12.7348 5.10536 12.4804 5.29289 12.2929C5.48043 12.1054 5.73478 12 6 12C6.26522 12 6.51957 12.1054 6.70711 12.2929C6.89464 12.4804 7 12.7348 7 13V15C7 15.2652 6.89464 15.5196 6.70711 15.7071C6.51957 15.8946 6.26522 16 6 16Z" fill="#FF8D54"/>
<path d="M2 12C1.73478 12 1.48043 11.8946 1.29289 11.7071C1.10536 11.5196 1 11.2652 1 11V9C1 8.73478 1.10536 8.48043 1.29289 8.29289C1.48043 8.10536 1.73478 8 2 8C2.26522 8 2.51957 8.10536 2.70711 8.29289C2.89464 8.48043 3 8.73478 3 9V11C3 11.2652 2.89464 11.5196 2.70711 11.7071C2.51957 11.8946 2.26522 12 2 12Z" fill="#FFB895"/>
<path d="M37 24C36.7348 24 36.4804 23.8946 36.2929 23.7071C36.1054 23.5196 36 23.2652 36 23V21C36 20.7348 36.1054 20.4804 36.2929 20.2929C36.4804 20.1054 36.7348 20 37 20C37.2652 20 37.5196 20.1054 37.7071 20.2929C37.8946 20.4804 38 20.7348 38 21V23C38 23.2652 37.8946 23.5196 37.7071 23.7071C37.5196 23.8946 37.2652 24 37 24Z" fill="#FE691E"/>
<path d="M34 17C33.7348 17 33.4804 16.8946 33.2929 16.7071C33.1054 16.5196 33 16.2652 33 16V14C33 13.7348 33.1054 13.4804 33.2929 13.2929C33.4804 13.1054 33.7348 13 34 13C34.2652 13 34.5196 13.1054 34.7071 13.2929C34.8946 13.4804 35 13.7348 35 14V16C35 16.2652 34.8946 16.5196 34.7071 16.7071C34.5196 16.8946 34.2652 17 34 17Z" fill="#FF8D54"/>
<path d="M38 14C37.7348 14 37.4804 13.8946 37.2929 13.7071C37.1054 13.5196 37 13.2652 37 13V10C37 9.73478 37.1054 9.48043 37.2929 9.29289C37.4804 9.10536 37.7348 9 38 9C38.2652 9 38.5196 9.10536 38.7071 9.29289C38.8946 9.48043 39 9.73478 39 10V13C39 13.2652 38.8946 13.5196 38.7071 13.7071C38.5196 13.8946 38.2652 14 38 14Z" fill="#FFB895"/>
<defs>
<linearGradient id="paint0_linear_1_566" x1="19.3888" y1="0" x2="19.3888" y2="58" gradientUnits="userSpaceOnUse">
<stop stop-color="#FF9159"/>
<stop offset="0.6875" stop-color="#FF7631"/>
<stop offset="1" stop-color="#FF6A1F"/>
</linearGradient>
</defs>
</svg>
